<svg width="512" height="512" viewBox="0 0 512 512" fill="none" xmlns="http://www.w3.org/2000/svg">
<g clip-path="url(#clip0_72_168)">
<path fill-rule="evenodd" clip-rule="evenodd" d="M512 256C512 397.385 397.385 512 256 512C114.615 512 0 397.385 0 256C0 114.615 114.615 0 256 0C397.385 0 512 114.615 512 256ZM92.0694 179.601C90.5061 180.283 89.5842 182.287 90.1854 183.85C90.7466 185.333 110.989 212.19 111.951 212.711C112.432 212.992 126.542 213.112 153.92 213.112C155.151 213.112 156.347 213.112 157.51 213.112C192.95 213.11 197.639 213.11 201.638 214.772C202.247 215.025 202.841 215.317 203.525 215.654C203.724 215.751 203.93 215.853 204.146 215.958C210.961 219.325 216.572 226.701 217.775 233.996C219.178 242.374 216.653 250.311 210.56 256.444C208.235 258.769 206.712 259.891 204.146 261.174C198.735 263.859 197.212 263.98 175.245 264.02C156.726 264.02 156.125 264.06 155.123 264.821C153.88 265.823 153.399 267.627 154.08 268.91C155.123 270.874 213.045 347.436 213.927 347.997C214.729 348.558 217.334 348.598 232.807 348.518L250.725 348.398L251.687 347.275C251.74 347.213 251.793 347.154 251.844 347.095C252.144 346.754 252.396 346.468 252.537 346.134C253.276 344.389 250.985 341.36 236.693 322.466C236.088 321.666 235.46 320.837 234.811 319.978L234.125 319.07C218.638 298.583 216.319 295.517 217.078 293.861C217.212 293.57 217.441 293.322 217.71 293.031C217.732 293.008 217.753 292.984 217.775 292.961C218.256 292.48 219.739 291.518 221.102 290.836C233.608 284.503 244.351 271.756 249.241 257.446C251.286 251.433 251.887 247.825 252.128 240.37C252.408 230.829 251.165 223.735 247.838 215.798L246.716 213.112H300.149C353.061 213.112 353.582 213.112 354.584 213.914C356.147 215.156 356.348 216.8 355.145 218.844C354.584 219.766 343.4 236.722 330.253 256.524C317.105 276.326 305.881 293.322 305.32 294.324C304.117 296.328 304.238 297.891 305.681 299.214C306.522 299.976 307.244 300.016 323.398 300.296C339.191 300.537 340.314 300.497 341.556 299.815C343.4 298.813 419 184.772 419 182.968C419 181.285 418.319 180.243 416.795 179.601C414.791 178.8 93.9935 178.8 92.0694 179.601ZM272.571 343.908C273.332 341.984 291.25 315.408 292.052 315.007C292.653 314.727 310.932 314.566 352.379 314.566L411.865 314.526L413.027 315.689L414.19 316.851V331.562V346.273L413.027 347.436L411.865 348.598H343.641C278.769 348.598 273.696 348.747 272.973 347.047C272.857 346.773 272.853 346.451 272.731 346.073C272.45 345.311 272.41 344.349 272.571 343.908Z" fill="black"/>
</g>
<defs>
<clipPath id="clip0_72_168">
<rect width="512" height="512" fill="white"/>
</clipPath>
</defs>
</svg>
